<svg width="56" height="56" viewBox="0 0 56 56" fill="none" xmlns="http://www.w3.org/2000/svg">
<circle cx="28" cy="28" r="28" fill="#E0F0E5"/>
<g clip-path="url(#clip0_1_44182)">
<path d="M28 33C30.7614 33 33 30.7614 33 28C33 25.2386 30.7614 23 28 23C25.2386 23 23 25.2386 23 28C23 30.7614 25.2386 33 28 33Z" stroke="#0F4E23" stroke-width="2" stroke-linecap="round" stroke-linejoin="round"/>
<path d="M39.6667 18H16.3333C14.4924 18 13 19.4924 13 21.3333V34.6667C13 36.5076 14.4924 38 16.3333 38H39.6667C41.5076 38 43 36.5076 43 34.6667V21.3333C43 19.4924 41.5076 18 39.6667 18Z" stroke="#0F4E23" stroke-width="2" stroke-linecap="round" stroke-linejoin="round"/>
<path d="M38 28H38.0167" stroke="#0F4E23" stroke-width="2" stroke-linecap="round" stroke-linejoin="round"/>
<path d="M18 28H18.0167" stroke="#0F4E23" stroke-width="2" stroke-linecap="round" stroke-linejoin="round"/>
</g>
<defs>
<clipPath id="clip0_1_44182">
<rect width="40" height="40" fill="white" transform="translate(8 8)"/>
</clipPath>
</defs>
</svg>
