<svg width="56" height="56" viewBox="0 0 56 56" fill="none" xmlns="http://www.w3.org/2000/svg">
<circle cx="28" cy="28" r="28" fill="#E0F0E5"/>
<g clip-path="url(#clip0_1_44190)">
<path d="M39.6667 23H23.0001C21.1591 23 19.6667 24.4924 19.6667 26.3333V36.3333C19.6667 38.1743 21.1591 39.6667 23.0001 39.6667H39.6667C41.5077 39.6667 43.0001 38.1743 43.0001 36.3333V26.3333C43.0001 24.4924 41.5077 23 39.6667 23Z" stroke="#0F4E23" stroke-width="2" stroke-linecap="round" stroke-linejoin="round"/>
<path d="M31.3333 34.6667C33.1743 34.6667 34.6667 33.1743 34.6667 31.3333C34.6667 29.4924 33.1743 28 31.3333 28C29.4924 28 28 29.4924 28 31.3333C28 33.1743 29.4924 34.6667 31.3333 34.6667Z" stroke="#0F4E23" stroke-width="2" stroke-linecap="round" stroke-linejoin="round"/>
<path d="M36.3333 22.9999V19.6666C36.3333 18.7825 35.9821 17.9347 35.357 17.3096C34.7319 16.6844 33.8841 16.3333 33 16.3333H16.3333C15.4493 16.3333 14.6014 16.6844 13.9763 17.3096C13.3512 17.9347 13 18.7825 13 19.6666V29.6666C13 30.5506 13.3512 31.3985 13.9763 32.0236C14.6014 32.6487 15.4493 32.9999 16.3333 32.9999H19.6667" stroke="#0F4E23" stroke-width="2" stroke-linecap="round" stroke-linejoin="round"/>
</g>
<defs>
<clipPath id="clip0_1_44190">
<rect width="40" height="40" fill="white" transform="translate(8 8)"/>
</clipPath>
</defs>
</svg>
