<svg width="16" height="10" viewBox="0 0 16 10" fill="none" xmlns="http://www.w3.org/2000/svg">
<path d="M15.6335 0.289386C15.5276 0.197689 15.4017 0.124907 15.263 0.0752394C15.1243 0.0255714 14.9755 0 14.8252 0C14.6749 0 14.5261 0.0255714 14.3873 0.0752394C14.2486 0.124907 14.1227 0.197689 14.0168 0.289386L5.53519 7.58766L1.97176 4.51573C1.86187 4.42451 1.73215 4.35279 1.59 4.30465C1.44786 4.25652 1.29607 4.23291 1.14331 4.23518C0.990548 4.23745 0.839803 4.26555 0.699681 4.31789C0.559559 4.37022 0.432805 4.44576 0.326655 4.54019C0.220505 4.63462 0.137038 4.74609 0.0810208 4.86824C0.0250032 4.99039 -0.00246884 5.12082 0.000174094 5.25209C0.00281703 5.38336 0.035523 5.5129 0.0964241 5.63331C0.157325 5.75372 0.245229 5.86265 0.355117 5.95386L4.72687 9.71062C4.83271 9.80231 4.95862 9.87509 5.09736 9.92476C5.23609 9.97443 5.3849 10 5.53519 10C5.68548 10 5.83429 9.97443 5.97302 9.92476C6.11176 9.87509 6.23767 9.80231 6.34351 9.71062L15.6335 1.72752C15.749 1.63591 15.8413 1.52472 15.9044 1.40096C15.9674 1.2772 16 1.14356 16 1.00845C16 0.873344 15.9674 0.7397 15.9044 0.615943C15.8413 0.492186 15.749 0.380998 15.6335 0.289386Z" fill="#0F4E23"/>
</svg>
