<svg width="72" height="48" viewBox="0 0 72 48" fill="none" xmlns="http://www.w3.org/2000/svg">
<circle cx="48" cy="24" r="24" fill="#0F4E23"/>
<circle cx="24" cy="24" r="24" fill="#F1F68E"/>
<path d="M36.3992 17.2749C36.2723 16.9694 36.0296 16.7267 35.7242 16.5999C35.5739 16.5358 35.4125 16.5019 35.2492 16.4999H28.9992C28.6677 16.4999 28.3497 16.6316 28.1153 16.866C27.8809 17.1004 27.7492 17.4184 27.7492 17.7499C27.7492 18.0814 27.8809 18.3993 28.1153 18.6338C28.3497 18.8682 28.6677 18.9999 28.9992 18.9999H32.2367L25.2492 25.9874L21.1367 21.8624C21.0205 21.7452 20.8822 21.6522 20.7299 21.5888C20.5776 21.5253 20.4142 21.4926 20.2492 21.4926C20.0842 21.4926 19.9208 21.5253 19.7685 21.5888C19.6161 21.6522 19.4779 21.7452 19.3617 21.8624L11.8617 29.3624C11.7445 29.4786 11.6515 29.6168 11.5881 29.7692C11.5246 29.9215 11.4919 30.0849 11.4919 30.2499C11.4919 30.4149 11.5246 30.5783 11.5881 30.7306C11.6515 30.8829 11.7445 31.0212 11.8617 31.1374C11.9779 31.2545 12.1161 31.3475 12.2685 31.411C12.4208 31.4745 12.5842 31.5071 12.7492 31.5071C12.9142 31.5071 13.0776 31.4745 13.2299 31.411C13.3822 31.3475 13.5205 31.2545 13.6367 31.1374L20.2492 24.5124L24.3617 28.6374C24.4779 28.7545 24.6161 28.8475 24.7685 28.911C24.9208 28.9745 25.0842 29.0071 25.2492 29.0071C25.4142 29.0071 25.5776 28.9745 25.7299 28.911C25.8822 28.8475 26.0205 28.7545 26.1367 28.6374L33.9992 20.7624V23.9999C33.9992 24.3314 34.1309 24.6493 34.3653 24.8838C34.5997 25.1182 34.9177 25.2499 35.2492 25.2499C35.5807 25.2499 35.8987 25.1182 36.1331 24.8838C36.3675 24.6493 36.4992 24.3314 36.4992 23.9999V17.7499C36.4972 17.5865 36.4632 17.4252 36.3992 17.2749Z" fill="#0F4E23"/>
</svg>
