<svg width="44" height="44" viewBox="0 0 44 44" fill="none" xmlns="http://www.w3.org/2000/svg">
<path d="M17.0979 2.91538C27.5451 0.300475 38.1305 6.65056 40.7409 17.0988C43.3512 27.5471 36.9978 38.137 26.5506 40.7521C16.1034 43.3671 5.518 37.0171 2.90768 26.5687C0.297466 16.1204 6.65067 5.53039 17.0979 2.91538Z" fill="#DAFFC2" stroke="white" stroke-width="3"/>
<path d="M15.5768 27.5935L15.7388 27.5529C16.4721 27.3694 17.0682 27.1205 17.5272 26.8063C17.9919 26.4907 18.338 26.1232 18.5654 25.7038C18.7971 25.2774 18.9243 24.8077 18.9471 24.2946C18.9742 23.7744 18.9146 23.2215 18.7683 22.636L18.2059 20.3849C18.0866 19.9074 17.9339 19.5017 17.7478 19.1678C17.5603 18.8281 17.3479 18.5581 17.1106 18.3578C16.879 18.1561 16.6318 18.0247 16.3689 17.9636C16.1046 17.8969 15.8389 17.897 15.5718 17.9638C15.2762 18.0378 15.0318 18.1715 14.8385 18.3648C14.6452 18.5582 14.4988 18.7941 14.3993 19.0727C14.3041 19.3442 14.2522 19.6441 14.2436 19.9724C14.2407 20.2993 14.2819 20.6333 14.3671 20.9743C14.4495 21.3041 14.5652 21.6103 14.7144 21.8931C14.8692 22.1745 15.0525 22.4125 15.2642 22.6071C15.4816 22.8004 15.7267 22.9353 15.9995 23.012C16.2709 23.083 16.5657 23.0786 16.8841 22.999C17.1853 22.9235 17.4439 22.7984 17.66 22.6235C17.8802 22.4416 18.0572 22.2312 18.1908 21.9924C18.323 21.7479 18.4075 21.4942 18.4445 21.2312C18.4858 20.9612 18.4808 20.6997 18.4297 20.4467L19.3079 20.5893C19.4115 21.0043 19.4257 21.4356 19.3503 21.8833C19.2806 22.3296 19.1306 22.7567 18.9004 23.1647C18.6744 23.5656 18.3816 23.9167 18.0221 24.2181C17.6611 24.5138 17.2447 24.7207 16.773 24.8388C16.1875 24.9853 15.6433 25.0068 15.1403 24.9032C14.6373 24.7996 14.1847 24.5957 13.7826 24.2917C13.3848 23.9805 13.0466 23.5941 12.7682 23.1322C12.4883 22.6647 12.2767 22.1439 12.1332 21.5697C11.9841 20.9729 11.938 20.3894 11.9949 19.8195C12.0504 19.2439 12.2047 18.713 12.4577 18.2269C12.715 17.7336 13.0681 17.31 13.5172 16.956C13.9649 16.5963 14.5041 16.3375 15.1351 16.1796C15.7887 16.016 16.4033 15.998 16.9788 16.1258C17.5543 16.2535 18.0779 16.5 18.5496 16.8651C19.0199 17.2246 19.4255 17.6878 19.7664 18.2548C20.1131 18.8203 20.3773 19.4669 20.5591 20.1946L20.7572 20.9876C20.9489 21.755 21.054 22.5018 21.0723 23.2281C21.0907 23.9543 21.0117 24.6415 20.8355 25.2897C20.6592 25.9378 20.3756 26.5312 19.9848 27.07C19.5996 27.6073 19.0944 28.0751 18.4691 28.4732C17.8481 28.8642 17.1027 29.1685 16.2331 29.3862L16.037 29.4353L15.5768 27.5935ZM30.7114 18.3691L31.212 20.3729L22.703 22.5028L22.2024 20.499L30.7114 18.3691ZM26.6855 15.7437L28.9436 24.7822L26.7865 25.3222L24.5284 16.2837L26.6855 15.7437Z" fill="#0F4E23"/>
</svg>
