<svg width="160" height="36" viewBox="0 0 160 36" fill="none" xmlns="http://www.w3.org/2000/svg">
<path d="M12.1066 5.84746L24.2132 17.5678L12.1066 29.2882L18.1599 35.1356L36.3199 17.5678L18.1599 0L12.1066 5.84746ZM12.1066 17.5678L6.05331 23.4153L0 17.5678L6.05331 11.7204L12.1066 17.5678Z" fill="#F1F68E"/>
<path d="M60.9871 29.8729C52.5338 29.8729 48.7205 24.7118 48.7205 17.8728V14.0593C48.7205 7.22028 52.5338 2.05927 60.9871 2.05927C68.0804 2.05927 72.4537 6.63554 72.7204 12.1016H67.5204C67.1471 9.07622 65.1471 6.45757 60.9871 6.45757C56.2938 6.45757 54.2938 9.50842 54.2938 13.805V18.1525C54.2938 22.4237 56.2938 25.5 60.9871 25.5C65.1471 25.5 67.1471 22.8559 67.5204 19.8559H72.7204C72.427 25.2966 68.0804 29.8729 60.9871 29.8729ZM94.6403 9.483V29.3644H89.4403V27C88.4803 28.6779 86.0803 29.822 83.387 29.822C78.6937 29.822 76.0804 26.7203 76.0804 22.2203V9.50842H81.5203V21.483C81.5203 24 82.7737 25.4491 85.2003 25.4491C87.7336 25.4491 89.1736 23.9237 89.1736 21.4322V9.483H94.6403ZM110.24 29.7966C107.227 29.7966 105.04 28.5762 104.08 26.9745V29.339H98.8803V1.4491H104.32V11.6949C105.44 10.1949 107.52 9.02537 110.294 9.02537C115.894 9.02537 119.04 12.9915 119.04 17.7711V21.0508C119.014 25.7542 115.867 29.7966 110.24 29.7966ZM108.934 25.6017C112.107 25.6017 113.574 23.4661 113.574 20.822V18C113.574 15.2033 111.974 13.2203 108.88 13.2203C106.4 13.2203 104.32 14.8983 104.32 17.9237V20.822C104.32 23.6186 106.16 25.6017 108.934 25.6017ZM130.213 36H124.854L126.933 29.2627L119.707 9.45758H125.147L129.627 23.7203L133.867 9.45758H139.28L130.213 36ZM141.28 29.339V9.45758H146.48V11.822C147.52 9.99148 149.653 8.99995 152.613 8.99995C157.147 8.99995 160 11.822 160 16.6016V29.3135H154.56V17.4406C154.56 15.1525 153.387 13.5 150.747 13.5C148.293 13.5 146.747 14.8728 146.747 17.5423V29.3135H141.28V29.339Z" fill="#F8F8F8"/>
</svg>
