<svg width="166" height="36" viewBox="0 0 166 36" fill="none" xmlns="http://www.w3.org/2000/svg">
<path d="M5.8882 0.135613L0.272629 4.24375C0.100853 4.36942 0 4.56507 0 4.77265V8.18836C0 8.73321 0.644253 9.04651 1.10045 8.72351L8.75703 3.30217C9.08997 3.06644 9.13455 2.60415 8.85246 2.31353L6.81138 0.211012C6.56938 -0.038288 6.17046 -0.0708703 5.8882 0.135613Z" fill="#F1F68E"/>
<path d="M23.1829 14.8301L3.12001 28.2079C2.73605 28.4639 2.72151 29.005 3.0912 29.2798L5.59312 31.1392C5.83137 31.3163 6.16149 31.3246 6.40903 31.1596L26.5626 17.7281C26.9541 17.4672 26.9601 16.9125 26.5743 16.6437L23.9817 14.838C23.7442 14.6725 23.4239 14.6694 23.1829 14.8301Z" fill="#F1F68E"/>
<path d="M28.8909 20.4136L9.90533 32.9261C9.51862 33.1809 9.50249 33.7244 9.87344 34.0001L12.378 35.8615C12.6129 36.0361 12.9376 36.0468 13.1844 35.8881L29.6654 25.2878C29.8571 25.1645 29.9723 24.9573 29.9723 24.7354V20.9618C29.9723 20.4272 29.3493 20.1114 28.8909 20.4136Z" fill="#F1F68E"/>
<path d="M17.3553 0.34211L0.271526 12.8921C0.1004 13.0178 0 13.2131 0 13.4202V16.8196C0 17.3677 0.650893 17.6801 1.10621 17.3506L20.2356 3.50852C20.5637 3.27115 20.6054 2.81262 20.3253 2.52401L18.2796 0.416701C18.0372 0.167027 17.6375 0.134772 17.3553 0.34211Z" fill="#F1F68E"/>
<path d="M29.6629 1.39257L0.291372 21.4156C0.108612 21.5402 0 21.7423 0 21.9578V25.3822C0 25.9227 0.63528 26.2371 1.09253 25.9229L30.4641 5.73617C30.6456 5.61142 30.7533 5.41007 30.7533 5.19552V1.93471C30.7533 1.39534 30.1204 1.08068 29.6629 1.39257Z" fill="#F1F68E"/>
<path d="M57.5062 30.1832C62.6856 30.1832 66.8434 26.1164 66.8434 21.033C66.8434 15.9495 62.6856 11.8828 57.5062 11.8828C55.392 11.8828 53.4188 12.5606 51.8687 13.7467V4.93542H47.2178V29.6748H51.5516V28.082C53.1724 29.4037 55.2511 30.1832 57.5062 30.1832ZM56.9074 26.0486C54.1235 26.0486 51.8687 23.8458 51.8687 21.033C51.8687 18.1863 54.1235 16.0173 56.9074 16.0173C59.6908 16.0173 61.9459 18.1863 61.9459 21.033C61.9459 23.8458 59.6908 26.0486 56.9074 26.0486Z" fill="#F8F8F8"/>
<path d="M88.367 12.3908H83.9623V13.9158C82.3769 12.628 80.3332 11.8824 78.1136 11.8824C72.9342 11.8824 68.7764 15.9492 68.7764 21.0326C68.7764 26.1161 72.9342 30.1828 78.1136 30.1828C80.3332 30.1828 82.3769 29.4372 83.9623 28.1494V29.6745H88.367V12.3908ZM73.6739 21.0326C73.6739 18.1859 75.894 16.017 78.7124 16.017C81.4963 16.017 83.7159 18.1859 83.7159 21.0326C83.7159 23.8793 81.4963 26.0483 78.7124 26.0483C75.894 26.0483 73.6739 23.8793 73.6739 21.0326Z" fill="#F8F8F8"/>
<path d="M90.5144 27.8444C91.9943 29.2339 94.8132 30.1828 97.3851 30.1828C101.367 30.1828 103.939 27.9461 103.939 24.6588C103.939 22.2866 102.635 20.8632 99.2879 19.4737L98.7241 19.2365C96.504 18.3215 95.9052 17.8131 95.9052 17.0675C95.9052 16.1864 96.6804 15.6781 98.0194 15.6781C99.2524 15.6781 100.345 16.0847 101.472 16.8642L103.481 13.5091C102.071 12.5263 99.8162 11.8824 97.7375 11.8824C93.7561 11.8824 91.0782 14.153 91.0782 17.3387C91.0782 19.6771 92.5581 21.1682 95.7643 22.456L96.5395 22.761C98.5127 23.5743 99.041 24.0488 99.041 24.8621C99.041 25.8449 98.3013 26.3872 96.9973 26.3872C95.6938 26.3872 94.2494 25.8449 92.7695 24.7266L90.5144 27.8444Z" fill="#F8F8F8"/>
<path d="M105.657 16.2883H108.899V29.6747H113.55V16.2883H117.567V12.391H113.55V7.47705H108.899V12.391H105.657V16.2883Z" fill="#F8F8F8"/>
<path d="M119.256 7.27343C119.256 8.83233 120.559 9.98457 122.216 9.98457C123.907 9.98457 125.245 8.79848 125.245 7.27343C125.245 5.71449 123.907 4.56226 122.216 4.56226C120.559 4.56226 119.256 5.71449 119.256 7.27343ZM119.925 29.6744H124.576V12.3908H119.925V29.6744Z" fill="#F8F8F8"/>
<path d="M127.17 21.0326C127.17 26.1161 131.575 30.1828 137.106 30.1828C142.674 30.1828 147.078 26.1161 147.078 21.0326C147.078 15.9153 142.674 11.8824 137.106 11.8824C131.575 11.8824 127.17 15.9492 127.17 21.0326ZM132.068 21.0326C132.068 18.2198 134.288 16.017 137.106 16.017C139.96 16.017 142.145 18.2198 142.145 21.0326C142.145 23.8454 139.96 26.0483 137.106 26.0483C134.288 26.0483 132.068 23.8454 132.068 21.0326Z" fill="#F8F8F8"/>
<path d="M149.687 29.6746H154.337V19.3722C154.337 17.4744 155.923 15.9494 157.931 15.9494C159.94 15.9494 161.349 17.4744 161.349 19.5078V29.6746H166V18.7622C166 14.6616 163.076 11.8148 158.883 11.8148C156.839 11.8148 155.112 12.4587 154.02 13.611V12.391H149.687V29.6746Z" fill="#F8F8F8"/>
</svg>
