<svg width="224" height="40" viewBox="0 0 224 40" fill="none" xmlns="http://www.w3.org/2000/svg">
<mask id="mask0_1_44227" style="mask-type:luminance" maskUnits="userSpaceOnUse" x="0" y="0" width="224" height="40">
<path d="M224 0H0V40H224V0Z" fill="white"/>
</mask>
<g mask="url(#mask0_1_44227)">
<path d="M66.6151 34.3105H59.6241C58.4318 34.3105 57.4563 33.3089 57.4563 32.0846V12.1625C57.4563 10.9383 58.4318 9.93655 59.6241 9.93655H66.6151C72.8476 9.93655 77.8877 15.3901 77.8877 22.1236C77.8877 28.857 72.8476 34.3105 66.6151 34.3105ZM66.6151 14.3884H61.7918V29.8587H66.6151C70.4629 29.8587 73.6066 26.4085 73.6066 22.1236C73.6066 17.8386 70.4629 14.3884 66.6151 14.3884ZM92.8997 34.3105C91.7074 34.3105 90.7319 33.3089 90.7319 32.0846V12.1625C90.7319 10.9383 91.7074 9.93655 92.8997 9.93655C94.092 9.93655 95.0675 10.9383 95.0675 12.1625V32.0846C95.0675 33.3089 94.092 34.3105 92.8997 34.3105ZM120.431 24.7391C119.238 24.7391 118.263 23.7373 118.263 22.5131C118.263 21.2888 119.238 20.2871 120.431 20.2871H125.742C126.934 20.2871 127.91 21.2888 127.91 22.5131V29.4692C127.91 30.0813 127.693 30.6378 127.26 31.083C125.146 33.1419 122.381 34.3105 119.455 34.3105C113.06 34.3105 107.966 28.8014 107.966 22.1236C107.966 15.5014 113.06 9.93655 119.455 9.93655C122.381 9.93655 125.146 11.1052 127.26 13.1641C128.126 13.9989 128.181 15.3901 127.313 16.2805C126.501 17.1709 125.146 17.2265 124.278 16.3361C122.923 15.0562 121.243 14.3328 119.455 14.3328C115.499 14.3328 112.247 17.783 112.247 22.0679C112.247 26.3529 115.499 29.803 119.455 29.803C120.972 29.803 122.436 29.3022 123.628 28.3562V24.6277H120.431V24.7391ZM143.246 34.3105C142.054 34.3105 141.078 33.3089 141.078 32.0846V12.1625C141.078 10.9383 142.054 9.93655 143.246 9.93655C144.439 9.93655 145.414 10.9383 145.414 12.1625V32.0846C145.414 33.3089 144.439 34.3105 143.246 34.3105ZM176.522 14.3884H170.453V32.0846C170.453 33.3089 169.477 34.3105 168.284 34.3105C167.092 34.3105 166.116 33.3089 166.116 32.0846V14.3884H160.047C158.854 14.3884 157.878 13.3868 157.878 12.1625C157.878 10.9383 158.854 9.93655 160.047 9.93655H176.522C177.715 9.93655 178.689 10.9383 178.689 12.1625C178.689 13.3868 177.715 14.3884 176.522 14.3884ZM206.438 16.3918C205.191 15.3901 203.511 14.7224 201.668 14.4441C199.934 14.2215 198.254 14.4441 197.062 15.0005C195.49 15.7797 195.49 16.7813 195.49 17.1709C195.436 18.3395 195.815 18.729 196.465 19.0628C197.495 19.5638 199.229 19.7307 200.856 19.8976C202.861 20.1202 204.92 20.2871 206.655 21.1219C208.985 22.2348 210.177 24.3495 210.123 27.1319C210.068 29.8587 208.497 31.9734 206.058 33.142C203.944 34.1436 201.289 34.3663 199.067 34.088C196.465 33.7541 194.027 32.7524 192.185 31.2499C191.263 30.4708 191.1 29.0797 191.805 28.1335C192.564 27.1876 193.864 27.0206 194.839 27.7441C196.086 28.7457 197.767 29.4135 199.609 29.6361C201.343 29.8587 203.023 29.6361 204.215 29.0797C204.865 28.7457 205.787 28.1893 205.787 26.9093C205.841 25.7408 205.462 25.3512 204.812 25.0173C203.782 24.5164 202.047 24.3495 200.421 24.1825C198.417 23.96 196.358 23.7931 194.623 22.9583C192.292 21.8454 191.1 19.7307 191.155 16.9482C191.209 14.2215 192.78 12.1068 195.22 10.9383C197.17 9.99218 199.609 9.65829 202.156 9.99218C204.758 10.3261 207.196 11.3278 209.038 12.8303C209.961 13.6093 210.123 15.0005 209.418 15.9466C208.714 17.0039 207.359 17.1709 206.438 16.3918Z" fill="#F8F8F8"/>
<path fill-rule="evenodd" clip-rule="evenodd" d="M37.0561 32.7831C36.5449 33.4512 35.5688 33.499 34.9647 32.9741C34.314 32.4492 34.2676 31.447 34.7788 30.8267C37.1491 27.868 38.5894 24.1459 38.5894 19.9944C38.6361 12.9796 34.4534 6.96703 28.5979 4.39017C28.5979 4.39017 28.5515 4.39017 28.5515 4.34247C27.8079 4.00841 27.4825 3.10175 27.8079 2.33825C28.1332 1.57474 29.0162 1.2407 29.7598 1.57474C36.7309 4.62879 41.6104 11.739 41.6104 19.9467C41.6104 24.8141 39.8908 29.2996 37.0561 32.7831ZM23.2536 3.10175L12.9831 3.05404H12.9367C12.1001 3.05404 11.4496 2.33825 11.4496 1.4793C11.4959 0.668071 12.1466 0 12.9831 0H22.1382C22.5565 0 23.0212 0 23.4394 0.0477193C24.2295 0.0954385 24.8337 0.715791 24.8337 1.52702C24.8337 1.57474 24.8337 1.67018 24.8337 1.7179C24.8337 2.52912 24.0901 3.1972 23.2536 3.10175ZM30.4568 9.06665C30.7822 9.35297 31.0145 9.78247 31.061 10.2119C31.061 10.5937 30.968 10.9755 30.7357 11.2618C30.2245 11.9298 29.295 12.0253 28.6444 11.5004C26.8785 10.0688 24.6478 9.25753 22.2312 9.25753H5.12923H5.08278C4.24628 9.25753 3.59565 8.54176 3.59565 7.6828C3.59565 6.82385 4.29273 6.15578 5.12923 6.15578H22.1847C25.2983 6.15578 28.1797 7.25335 30.4568 9.06665ZM29.6204 19.9467C29.6204 24.1459 26.2743 27.6772 22.1382 27.6295H16.5615H16.5151C15.6786 27.6295 15.0279 26.9137 15.0279 26.0547V19.9467C15.0279 19.0877 15.6786 18.4196 16.5151 18.372H16.5615C17.3981 18.372 18.0486 19.0877 18.0486 19.9467V24.5277H22.1382C24.6478 24.5277 26.5997 22.4759 26.5997 19.9467C26.5997 17.3698 24.6013 15.3656 22.1382 15.3656H1.59732H1.55084C0.714337 15.3656 0.0637207 14.6498 0.0637207 13.7908C0.0637207 12.932 0.76081 12.2639 1.59732 12.2639H22.1847C26.2743 12.2639 29.6204 15.7474 29.6204 19.9467ZM9.77651 21.5214H5.17573C4.33919 21.5214 3.68857 20.8056 3.73506 19.9467C3.73506 19.0877 4.43217 18.4196 5.26867 18.4674H9.82296C10.6595 18.4674 11.3101 19.1831 11.3101 19.9944V20.0421C11.2636 20.901 10.613 21.5692 9.77651 21.5214ZM1.78321 24.5755H9.82296C10.6595 24.5755 11.3101 25.2435 11.3565 26.1025V26.1502C11.3565 27.0092 10.6595 27.6772 9.82296 27.6772H1.78321H1.73673C0.90023 27.6772 0.249611 26.9614 0.249611 26.1025C0.296084 25.2435 0.993175 24.5755 1.78321 24.5755ZM5.08278 30.6835H22.1382C27.9473 30.6835 32.5946 25.9116 32.5946 19.9467C32.5946 18.7059 32.3622 17.513 31.9904 16.3677C31.7116 15.5565 32.1298 14.6975 32.9199 14.4112C33.71 14.1249 34.5465 14.5544 34.8253 15.3656C35.3364 16.7972 35.6153 18.372 35.6153 19.9467C35.6153 27.5818 29.5739 33.7375 22.1847 33.7375H5.08278H5.03629C4.19979 33.7375 3.54917 33.0218 3.54917 32.1628C3.59565 31.3516 4.29273 30.6835 5.08278 30.6835ZM13.0296 36.8393H22.1847C25.066 36.8393 27.7615 36.0759 30.0851 34.7874C30.3174 34.6441 30.5498 34.5965 30.7822 34.5965C31.6187 34.5965 32.2693 35.2645 32.3157 36.1235C32.3157 36.6961 32.0369 37.221 31.5258 37.5073C28.7838 39.0822 25.5773 39.9409 22.1847 39.9409H12.9831C12.1466 39.9409 11.4959 39.2254 11.4959 38.3664C11.5425 37.5073 12.1931 36.8393 13.0296 36.8393Z" fill="#F1F68E"/>
</g>
</svg>
