<svg width="112" height="36" viewBox="0 0 112 36" fill="none" xmlns="http://www.w3.org/2000/svg">
<path fill-rule="evenodd" clip-rule="evenodd" d="M60.4679 5.08H65.9002V0H60.4679V5.08ZM13.5467 1.40549C13.5467 1.22413 13.5467 1.13342 13.5612 1.05809C13.6198 0.760446 13.8421 0.527795 14.1267 0.46685C14.1988 0.45144 14.2854 0.451437 14.4589 0.451437C16.309 0.451437 17.2338 0.45144 18.0023 0.615969C21.0385 1.26608 23.4116 3.74741 24.0332 6.92257C24.1906 7.72612 24.1906 8.69337 24.1906 10.6279V12.536C24.1906 14.4705 24.1906 15.4377 24.0332 16.2413C23.4116 19.4165 21.0385 21.8977 18.0023 22.548C17.2338 22.7123 16.309 22.7123 14.4589 22.7123C14.2854 22.7123 14.1988 22.7123 14.1267 22.6971C13.8421 22.6359 13.6198 22.4034 13.5612 22.1058C13.5467 22.0304 13.5467 21.9399 13.5467 21.7585V1.40549ZM0 18.2165C0 16.282 0 15.3147 0.157335 14.5112C0.779027 11.336 3.15189 8.8547 6.18829 8.20455C6.95671 8.04003 7.88155 8.04003 9.73168 8.04003C9.90516 8.04003 9.99175 8.04003 10.0639 8.05547C10.3485 8.11641 10.5708 8.34903 10.6293 8.64671C10.6438 8.72204 10.6438 8.81272 10.6438 8.99404V25.69C10.6438 27.6243 10.6438 28.5917 10.4867 29.3951C9.86486 32.5704 7.49207 35.0517 4.45567 35.7017C3.68725 35.8663 2.76228 35.8663 0.912342 35.8663C0.738917 35.8663 0.652204 35.8663 0.580164 35.8508C0.295497 35.7899 0.0730472 35.5575 0.0147663 35.2598C0 35.1844 0 35.0936 0 34.9125V18.2165ZM42.5208 36H37.0507V8.34528H42.5208V11.5802C43.6149 9.60767 45.9162 7.87188 48.8212 7.87188C53.6499 7.87188 57.4225 11.6196 57.4225 18.4446V18.7601C57.4225 25.5851 53.7254 29.4117 48.8212 29.4117C45.7654 29.4117 43.5394 27.8339 42.5208 25.8218V36ZM42.3322 18.7996C42.3322 22.9418 44.2185 24.9539 47.199 24.9539C50.2169 24.9539 51.8769 22.8236 51.8769 18.7996V18.484C51.8769 14.3023 49.9153 12.2509 47.1612 12.2509C44.2941 12.2509 42.3322 14.3417 42.3322 18.484V18.7996ZM60.4679 28.9776H65.9002V8.34518H60.4679V28.9776ZM75.6429 36H70.1729V8.34528H75.6429V11.5802C76.7371 9.60767 79.0384 7.87188 81.9433 7.87188C86.772 7.87188 90.5447 11.6196 90.5447 18.4446V18.7601C90.5447 25.5851 86.8476 29.4117 81.9433 29.4117C78.8873 29.4117 76.6615 27.8339 75.6429 25.8218V36ZM75.4543 18.7996C75.4543 22.9418 77.3407 24.9539 80.3208 24.9539C83.3391 24.9539 84.9991 22.8236 84.9991 18.7996V18.484C84.9991 14.3023 83.0372 12.2509 80.2834 12.2509C77.4162 12.2509 75.4543 14.3417 75.4543 18.484V18.7996ZM102.531 29.4117C107.926 29.4117 111.321 26.9265 111.962 22.4684H106.794C106.454 24.2042 105.209 25.3484 102.682 25.3484C99.7015 25.3484 97.9282 23.3758 97.7774 19.9437H112V18.3657C112 10.9884 107.473 7.87188 102.38 7.87188C96.6458 7.87188 92.2317 12.093 92.2317 18.6024V18.918C92.2317 25.5061 96.5702 29.4117 102.531 29.4117ZM97.853 16.4326C98.2679 13.5133 99.9279 11.8169 102.38 11.8169C104.983 11.8169 106.492 13.316 106.681 16.4326H97.853Z" fill="#F8F8F8"/>
<mask id="mask0_1_44234" style="mask-type:alpha" maskUnits="userSpaceOnUse" x="0" y="0" width="112" height="36">
<path fill-rule="evenodd" clip-rule="evenodd" d="M60.4679 5.08H65.9002V0H60.4679V5.08ZM13.5467 1.40549C13.5467 1.22413 13.5467 1.13342 13.5612 1.05809C13.6198 0.760446 13.8421 0.527795 14.1267 0.46685C14.1988 0.45144 14.2854 0.451437 14.4589 0.451437C16.309 0.451437 17.2338 0.45144 18.0023 0.615969C21.0385 1.26608 23.4116 3.74741 24.0332 6.92257C24.1906 7.72612 24.1906 8.69337 24.1906 10.6279V12.536C24.1906 14.4705 24.1906 15.4377 24.0332 16.2413C23.4116 19.4165 21.0385 21.8977 18.0023 22.548C17.2338 22.7123 16.309 22.7123 14.4589 22.7123C14.2854 22.7123 14.1988 22.7123 14.1267 22.6971C13.8421 22.6359 13.6198 22.4034 13.5612 22.1058C13.5467 22.0304 13.5467 21.9399 13.5467 21.7585V1.40549ZM0 18.2165C0 16.282 0 15.3147 0.157335 14.5112C0.779027 11.336 3.15189 8.8547 6.18829 8.20455C6.95671 8.04003 7.88155 8.04003 9.73168 8.04003C9.90516 8.04003 9.99175 8.04003 10.0639 8.05547C10.3485 8.11641 10.5708 8.34903 10.6293 8.64671C10.6438 8.72204 10.6438 8.81272 10.6438 8.99404V25.69C10.6438 27.6243 10.6438 28.5917 10.4867 29.3951C9.86486 32.5704 7.49207 35.0517 4.45567 35.7017C3.68725 35.8663 2.76228 35.8663 0.912342 35.8663C0.738917 35.8663 0.652204 35.8663 0.580164 35.8508C0.295497 35.7899 0.0730472 35.5575 0.0147663 35.2598C0 35.1844 0 35.0936 0 34.9125V18.2165ZM42.5208 36H37.0507V8.34528H42.5208V11.5802C43.6149 9.60767 45.9162 7.87188 48.8212 7.87188C53.6499 7.87188 57.4225 11.6196 57.4225 18.4446V18.7601C57.4225 25.5851 53.7254 29.4117 48.8212 29.4117C45.7654 29.4117 43.5394 27.8339 42.5208 25.8218V36ZM42.3322 18.7996C42.3322 22.9418 44.2185 24.9539 47.199 24.9539C50.2169 24.9539 51.8769 22.8236 51.8769 18.7996V18.484C51.8769 14.3023 49.9153 12.2509 47.1612 12.2509C44.2941 12.2509 42.3322 14.3417 42.3322 18.484V18.7996ZM60.4679 28.9776H65.9002V8.34518H60.4679V28.9776ZM75.6429 36H70.1729V8.34528H75.6429V11.5802C76.7371 9.60767 79.0384 7.87188 81.9433 7.87188C86.772 7.87188 90.5447 11.6196 90.5447 18.4446V18.7601C90.5447 25.5851 86.8476 29.4117 81.9433 29.4117C78.8873 29.4117 76.6615 27.8339 75.6429 25.8218V36ZM75.4543 18.7996C75.4543 22.9418 77.3407 24.9539 80.3208 24.9539C83.3391 24.9539 84.9991 22.8236 84.9991 18.7996V18.484C84.9991 14.3023 83.0372 12.2509 80.2834 12.2509C77.4162 12.2509 75.4543 14.3417 75.4543 18.484V18.7996ZM102.531 29.4117C107.926 29.4117 111.321 26.9265 111.962 22.4684H106.794C106.454 24.2042 105.209 25.3484 102.682 25.3484C99.7015 25.3484 97.9282 23.3758 97.7774 19.9437H112V18.3657C112 10.9884 107.473 7.87188 102.38 7.87188C96.6458 7.87188 92.2317 12.093 92.2317 18.6024V18.918C92.2317 25.5061 96.5702 29.4117 102.531 29.4117ZM97.853 16.4326C98.2679 13.5133 99.9279 11.8169 102.38 11.8169C104.983 11.8169 106.492 13.316 106.681 16.4326H97.853Z" fill="#614CE1"/>
</mask>
<g mask="url(#mask0_1_44234)">
<rect x="-6.69385" y="-13.9998" width="31.5575" height="55" fill="#F1F68E"/>
</g>
</svg>
