<svg width="154" height="40" viewBox="0 0 154 40" fill="none" xmlns="http://www.w3.org/2000/svg">
<mask id="mask0_1_44239" style="mask-type:luminance" maskUnits="userSpaceOnUse" x="0" y="0" width="154" height="40">
<path d="M154 0H0V40H154V0Z" fill="white"/>
</mask>
<g mask="url(#mask0_1_44239)">
<path d="M59.3974 12.1016C55.5922 12.1016 53.7242 15.4406 53.7242 19.899V31.072H48.3579V7.49443H53.6302V13.6113H53.7218C54.8475 9.85046 57.0915 6.81152 60.5528 6.81152C62.9873 6.81152 64.014 7.65783 64.014 7.65783L61.5919 12.5138C61.5919 12.5138 60.82 12.1016 59.3974 12.1016ZM124.271 15.3381V31.0694H119.043V17.2527C119.043 13.287 117.794 11.187 114.602 11.187C111.297 11.187 109.698 13.8431 109.698 18.938V31.0669H104.518V17.2527C104.518 13.4406 103.283 11.187 100.124 11.187C96.5163 11.187 95.1283 14.3333 95.1283 18.938V31.0669H89.8561V7.49443H95.1283V12.8333H95.1753C95.9966 9.13829 98.2383 6.85787 102.021 6.85787C105.772 6.85787 108.216 8.86512 109.144 12.4236C110.027 8.99926 112.378 6.85787 115.99 6.85787C121.03 6.85787 124.271 10.0041 124.271 15.3381ZM74.5611 6.81152C69.7094 6.81152 66.5351 9.07975 65.0878 13.1748L69.5535 14.7918C70.3674 12.3211 72.0647 10.9139 74.6551 10.9139C77.5697 10.9139 79.2817 12.1919 79.2817 14.1528C79.2817 16.1576 77.9185 16.5771 74.8406 17.0722C71.4166 17.621 63.2743 17.8015 63.2743 24.6403C63.2743 28.6474 66.639 31.6621 71.6935 31.6621C75.4939 31.6621 78.0817 30.1159 79.2791 27.2379H79.3261V31.0694H84.5539V16.5698C84.5516 10.2261 81.3451 6.81152 74.5611 6.81152ZM79.4178 19.9721C79.4178 24.9158 76.9611 28.0914 73.0346 28.0914C70.2587 28.0914 68.5936 26.5402 68.5936 24.3037C68.5936 22.2062 70.3057 20.7503 73.5887 20.1502C76.9485 19.5356 78.641 18.7771 79.4178 16.9576V19.9721ZM142.866 6.85787C138.868 6.85787 136.225 9.0456 135.095 12.3333V7.49443H129.543V40.1449H135.048V26.2331H135.095C136.32 29.7939 138.87 31.7523 142.866 31.7523C149.202 31.7523 153.737 26.555 153.737 19.2113C153.735 11.9187 149.202 6.85787 142.866 6.85787ZM141.5 27.3768C137.111 27.3768 134.677 24.2061 134.677 19.2818C134.677 14.3577 137.401 11.187 141.5 11.187C145.598 11.187 148.324 14.5113 148.324 19.2818C148.324 24.0551 145.6 27.3768 141.5 27.3768Z" fill="#F8F8F8"/>
<path d="M37.6357 25.0705V25.1818L21.3922 25.1874V25.0705C23.7346 23.7534 25.3514 22.4119 26.8062 21.01H33.476L37.6357 25.0705ZM33.6109 4.00811L29.4937 -0.0129395H29.3741C29.3741 -0.0129395 29.4435 7.48083 22.5307 14.2962C15.7663 20.9666 7.81152 20.9816 7.81152 20.9816V21.0985L12.0059 25.1893C12.0059 25.1893 19.845 25.2665 26.7695 18.5038C33.6688 11.7638 33.6109 4.00811 33.6109 4.00811Z" fill="#F1F68E"/>
</g>
</svg>
